<?xml version="1.0" encoding="UTF-8"?>
<svg width="20px" height="20px" viewBox="0 0 20 20" version="1.1" xmlns="http://www.w3.org/2000/svg" xmlns:xlink="http://www.w3.org/1999/xlink">
    <title>图标/费用</title>
    <g id="页面-1" stroke="none" stroke-width="1" fill="none" fill-rule="evenodd">
        <g id="控制台-首页" transform="translate(-20.000000, -292.000000)">
            <g id="侧边栏" transform="translate(0.000000, 59.000000)">
                <g id="编组-2" transform="translate(0.000000, 221.000000)">
                    <g id="图标/费用" transform="translate(20.000000, 12.000000)">
                        <rect id="矩形" opacity="0" x="0" y="0" width="20" height="20"></rect>
                        <path d="M16.72,2 C17.4269245,2 18,2.57307552 18,3.28000001 L18,3.28000001 L18,16.72 C18,17.4269245 17.4269245,18 16.72,18 L16.72,18 L3.28000001,18 C2.57307552,18 2,17.4269245 2,16.72 L2,16.72 L2,3.28000001 C2,2.57307552 2.57307552,2 3.28000001,2 L3.28000001,2 Z M16.72,3.28000001 L3.28000001,3.28000001 L3.28000001,16.72 L16.72,16.72 L16.72,3.28000001 Z M13.3712934,5.56172171 C13.6492115,5.76335189 13.7185022,6.14836608 13.52832,6.43424 L13.4976,6.4768 L11.448,9.07 L13.1392,9.07008001 C13.4827285,9.07089263 13.7643426,9.34277163 13.7772352,9.68605909 C13.7901278,10.0293465 13.5296998,10.3215827 13.1872,10.34816 L13.1392,10.3500865 L10.755,10.35 L10.755,11.572 L13.1392,11.5724735 C13.4844254,11.570935 13.7686603,11.8434747 13.7816134,12.1884605 C13.7945666,12.5334462 13.5315692,12.8265328 13.1872,12.85088 L13.1392,12.85248 L10.755,12.852 L10.7552,14.4 C10.7543874,14.7435285 10.4825084,15.0251426 10.1392209,15.0380352 C9.79593345,15.0509278 9.50369734,14.7904998 9.47712001,14.448 L9.47520001,14.4 L9.475,12.852 L7.0912,12.85248 C6.7476714,12.8516675 6.46605719,12.5797885 6.45316457,12.2365009 C6.44027195,11.8932134 6.70070006,11.6009772 7.0432,11.5744 L7.0912,11.5724735 L9.475,11.572 L9.475,10.35 L7.0912,10.3500865 C6.74597463,10.3516249 6.46173972,10.0790853 6.44878656,9.73409953 C6.4358334,9.38911379 6.69883079,9.09602721 7.0432,9.07168 L7.0912,9.07008001 L9.84553157,9.06999127 C9.86091356,9.03450358 9.87973659,8.99993071 9.90208,8.96671999 L9.93312001,8.92416001 L12.49312,5.68320001 C12.7058657,5.41369598 13.0933754,5.36009152 13.3712934,5.56172171 Z M7.30988015,5.44408728 C7.47852902,5.46389301 7.63239367,5.54990959 7.73760001,5.68320001 L9.88320001,8.40000001 L8.25216001,8.40000001 L6.73312,6.4768 L6.70208,6.43424 C6.51764686,6.15666935 6.577087,5.78402002 6.83872,5.57760001 C6.97162463,5.47231038 7.14123127,5.42428154 7.30988015,5.44408728 Z" id="形状结合" fill="#6B7278" fill-rule="nonzero"></path>
                    </g>
                </g>
            </g>
        </g>
    </g>
</svg>